<svg width="44" height="44" viewBox="0 0 44 44" fill="none" xmlns="http://www.w3.org/2000/svg">
<path d="M0 16C0 10.3995 0 7.59921 1.08993 5.46009C2.04867 3.57847 3.57847 2.04867 5.46009 1.08993C7.59921 0 10.3995 0 16 0H28C33.6005 0 36.4008 0 38.5399 1.08993C40.4215 2.04867 41.9513 3.57847 42.9101 5.46009C44 7.59921 44 10.3995 44 16V28C44 33.6005 44 36.4008 42.9101 38.5399C41.9513 40.4215 40.4215 41.9513 38.5399 42.9101C36.4008 44 33.6005 44 28 44H16C10.3995 44 7.59921 44 5.46009 42.9101C3.57847 41.9513 2.04867 40.4215 1.08993 38.5399C0 36.4008 0 33.6005 0 28V16Z" fill="#F7F7F7"/>
<path d="M16.3886 31.4641C15.9457 31.2011 15.7242 31.0696 15.5927 30.8224C15.4878 30.625 15.4512 30.3329 15.5041 30.1158C15.5705 29.8437 15.7799 29.6344 16.1985 29.2157L23.8284 21.5858V24.8284C23.8284 25.3807 24.2761 25.8284 24.8284 25.8284C25.3807 25.8284 25.8284 25.3807 25.8284 24.8284V19.1716C25.8284 18.6193 25.3807 18.1716 24.8284 18.1716L19.1716 18.1716C18.6193 18.1716 18.1716 18.6193 18.1716 19.1716C18.1716 19.7239 18.6193 20.1716 19.1716 20.1716L22.4142 20.1716L14.7843 27.8015C14.3656 28.2201 14.1563 28.4295 13.8842 28.4959C13.6671 28.5488 13.375 28.5122 13.1776 28.4073C12.9304 28.2758 12.7989 28.0543 12.5359 27.6114C10.029 23.3903 10.591 17.8527 14.2218 14.2218C18.5176 9.92606 25.4824 9.92606 29.7782 14.2218C34.0739 18.5176 34.0739 25.4824 29.7782 29.7782C26.1473 33.409 20.6097 33.971 16.3886 31.4641Z" fill="#74CDFF"/>
</svg>
