<svg width="20" height="20" viewBox="0 0 20 20" fill="none" xmlns="http://www.w3.org/2000/svg">
<path d="M10 0.91687C10.4141 0.917046 10.75 1.25277 10.75 1.66687C10.7499 2.0809 10.414 2.41669 10 2.41687C5.8121 2.41705 2.41717 5.81198 2.41699 9.99988C2.41708 14.1879 5.81204 17.5837 10 17.5839C14.188 17.5837 17.5839 14.1879 17.584 9.99988C17.5842 9.58581 17.9199 9.24988 18.334 9.24988C18.7478 9.25023 19.0838 9.58603 19.084 9.99988C19.0839 15.0163 15.0164 19.0837 10 19.0839C4.98362 19.0837 0.917081 15.0163 0.916992 9.99988C0.917168 4.98355 4.98367 0.917046 10 0.91687ZM10 5.08386C10.4141 5.08404 10.75 5.41976 10.75 5.83386C10.7497 6.24774 10.4139 6.58369 10 6.58386C8.11328 6.58404 6.58416 8.11316 6.58398 9.99988C6.58407 11.8867 8.11323 13.4167 10 13.4169C11.8868 13.4167 13.4169 11.8867 13.417 9.99988C13.4172 9.58581 13.7529 9.24988 14.167 9.24988C14.5809 9.25005 14.9168 9.58592 14.917 9.99988C14.9169 12.7151 12.7152 14.9167 10 14.9169C7.2848 14.9167 5.08407 12.7151 5.08398 9.99988C5.08416 7.28474 7.28486 5.08404 10 5.08386ZM15.9541 0.926636C16.1918 0.965432 16.3972 1.11649 16.5049 1.33191L17.2256 2.77429L18.6689 3.49597C18.8844 3.60383 19.0356 3.8089 19.0742 4.04675C19.1127 4.28451 19.0345 4.52675 18.8643 4.69714L16.3643 7.19714C16.2238 7.33763 16.0326 7.41669 15.834 7.41687L13.6445 7.41687L10.5303 10.5302C10.2375 10.823 9.76264 10.8228 9.46973 10.5302C9.17713 10.2372 9.17694 9.7624 9.46973 9.4696L12.584 6.35535V4.16687C12.584 3.96796 12.6631 3.77725 12.8037 3.6366L15.3037 1.1366L15.3701 1.07703C15.5339 0.948348 15.7458 0.89284 15.9541 0.926636ZM14.084 4.47742V5.91687L15.5234 5.91687L17.0674 4.37195L16.332 4.00476C16.187 3.93223 16.0687 3.81385 15.9961 3.66882L15.6279 2.9325L14.084 4.47742Z" fill="#888888"/>
</svg>
