<svg width="24" height="24" viewBox="0 0 24 24" fill="none" xmlns="http://www.w3.org/2000/svg">
<path d="M12 2C13.3241 2 14.5078 2.6005 15.2939 3.54395C15.6122 3.46854 15.9448 3.42871 16.2861 3.42871C18.6527 3.42894 20.5711 5.34726 20.5713 7.71387C20.5713 8.05522 20.5315 8.38776 20.4561 8.70605C21.3995 9.4922 22 10.6759 22 12C22 13.3241 21.3995 14.5078 20.4561 15.2939C20.5315 15.6122 20.5713 15.9448 20.5713 16.2861C20.5711 18.6527 18.6527 20.5711 16.2861 20.5713C15.9448 20.5713 15.6122 20.5315 15.2939 20.4561C14.5078 21.3995 13.3241 22 12 22C10.6759 22 9.4922 21.3995 8.70605 20.4561C8.38776 20.5315 8.05522 20.5713 7.71387 20.5713C5.34726 20.5711 3.42894 18.6527 3.42871 16.2861C3.42871 15.9448 3.46854 15.6122 3.54395 15.2939C2.6005 14.5078 2 13.3241 2 12C2 10.6759 2.6005 9.4922 3.54395 8.70605C3.46854 8.38776 3.42871 8.05522 3.42871 7.71387C3.42894 5.34726 5.34726 3.42894 7.71387 3.42871C8.05522 3.42871 8.38776 3.46854 8.70605 3.54395C9.4922 2.6005 10.6759 2 12 2ZM15.7314 9.20215C15.4013 8.90868 14.8961 8.93853 14.6025 9.26855L10.9336 13.3955L9.39746 11.6689C9.10393 11.3387 8.59878 11.309 8.26855 11.6025C7.93853 11.8961 7.90868 12.4013 8.20215 12.7314L10.335 15.1318C10.4868 15.3026 10.7051 15.4004 10.9336 15.4004C11.1619 15.4003 11.3795 15.3024 11.5313 15.1318L15.7979 10.3311C16.0912 10.0008 16.0616 9.49562 15.7314 9.20215Z" fill="#2CC2FF"/>
</svg>
