<svg width="24" height="24" viewBox="0 0 24 24" fill="none" xmlns="http://www.w3.org/2000/svg">
<path d="M21 19.0001C21.5522 19.0001 21.9999 19.4479 22 20.0001C21.9999 20.5523 21.5522 21.0001 21 21.0001H3C2.44776 21.0001 2.00008 20.5523 2 20.0001C2.00012 19.4479 2.44779 19.0001 3 19.0001H21ZM6 10.0001C6.55221 10.0001 6.99988 10.4479 7 11.0001V17.0001C6.99992 17.5523 6.55224 18.0001 6 18.0001C5.44776 18.0001 5.00008 17.5523 5 17.0001V11.0001C5.00012 10.4479 5.44779 10.0001 6 10.0001ZM10 10.0001C10.5522 10.0001 10.9999 10.4479 11 11.0001V17.0001C10.9999 17.5523 10.5522 18.0001 10 18.0001C9.44776 18.0001 9.00008 17.5523 9 17.0001V11.0001C9.00012 10.4479 9.44779 10.0001 10 10.0001ZM14 10.0001C14.5522 10.0001 14.9999 10.4479 15 11.0001V17.0001C14.9999 17.5523 14.5522 18.0001 14 18.0001C13.4478 18.0001 13.0001 17.5523 13 17.0001V11.0001C13.0001 10.4479 13.4478 10.0001 14 10.0001ZM18 10.0001C18.5522 10.0001 18.9999 10.4479 19 11.0001V17.0001C18.9999 17.5523 18.5522 18.0001 18 18.0001C17.4478 18.0001 17.0001 17.5523 17 17.0001V11.0001C17.0001 10.4479 17.4478 10.0001 18 10.0001ZM12.167 2.09966L12.332 2.12701L12.4375 2.1563C12.6775 2.23283 12.8739 2.36693 12.9541 2.41704L20.5303 7.1524C20.9084 7.38889 21.0839 7.84772 20.9609 8.27642C20.8377 8.70489 20.4459 9.00005 20 9.00005H4C3.55411 9.00005 3.16225 8.70489 3.03906 8.27642C2.91611 7.84772 3.09164 7.38889 3.46973 7.1524L11.0459 2.41704C11.1375 2.35977 11.3812 2.19219 11.668 2.12701L11.833 2.09966C11.944 2.08722 12.056 2.08722 12.167 2.09966ZM7.48828 7.00005H16.5117L12 4.17974L7.48828 7.00005Z" fill="#888888"/>
</svg>
