<svg width="19" height="19" viewBox="0 0 19 19" fill="none" xmlns="http://www.w3.org/2000/svg">
<path fill-rule="evenodd" clip-rule="evenodd" d="M2.375 7.91669C2.375 3.98166 5.56497 0.791687 9.5 0.791687C13.435 0.791687 16.625 3.98166 16.625 7.91669C16.625 9.91658 15.7171 11.6694 14.4814 13.2739C13.4488 14.6147 12.127 15.925 10.8068 17.2338L10.8058 17.2348C10.5564 17.482 10.3071 17.7292 10.0598 17.9765C9.75063 18.2856 9.24937 18.2856 8.94021 17.9765C8.69271 17.729 8.44265 17.4811 8.19309 17.2337C6.87283 15.9249 5.5512 14.6147 4.51861 13.2739C3.28291 11.6694 2.375 9.91658 2.375 7.91669ZM11.875 7.91669C11.875 9.22836 10.8117 10.2917 9.5 10.2917C8.18832 10.2917 7.125 9.22836 7.125 7.91669C7.125 6.60501 8.18832 5.54169 9.5 5.54169C10.8117 5.54169 11.875 6.60501 11.875 7.91669Z" fill="#7B7B7B"/>
</svg>
