<svg width="72" height="24" viewBox="0 0 72 24" fill="none" xmlns="http://www.w3.org/2000/svg">
<path d="M47.1123 0C49.3683 0 51.1933 0.51824 52.3438 0.988281L51.5508 6.00586L51.0234 5.75879C49.9681 5.28905 48.5748 4.81956 46.6787 4.86914C44.3759 4.86914 43.3433 5.88232 43.3193 6.87109C43.3196 7.95859 44.5686 8.67536 46.6084 9.73828C49.9688 11.3942 51.5272 13.4207 51.5039 16.0654C51.4567 20.8851 47.4724 24 41.3525 24C38.7361 23.975 36.2155 23.4046 34.8477 22.7627L35.6641 17.5479L36.4326 17.9189C38.3285 18.7847 39.576 19.1552 41.9043 19.1553C43.5835 19.1553 45.3843 18.4373 45.4072 16.8809C45.4071 15.8676 44.6401 15.1251 42.3838 13.9883C40.1761 12.8757 37.2246 11.0224 37.2725 7.68555C37.2975 3.16304 41.3528 0.000136434 47.1123 0ZM31.2002 23.6533H25.3672L29.0156 0.420898H34.8477L31.2002 23.6533ZM72 23.6533H66.5996C66.5996 23.6533 66.0718 20.9838 65.9043 20.168H58.415C58.1984 20.7859 57.1914 23.6533 57.1914 23.6533H51.0713L59.7354 2.34863C60.3356 0.84089 61.3921 0.420931 62.7832 0.420898H67.2949L72 23.6533ZM9.47949 0.420898C10.7514 0.469845 11.7843 0.890202 12.1201 2.37402L14.1592 13.0479L14.1602 13.0498L14.7842 16.2627L20.4961 0.420898H26.6631L17.4961 23.6289H11.3281L6.12891 3.44043C4.33548 2.36063 2.28835 1.49235 0 0.889648L0.0957031 0.420898H9.47949ZM63.1914 6.69824C62.9041 7.56114 62.4021 8.9655 62.4238 8.92285C62.4064 8.97161 60.5738 14.0944 60.0957 15.4229H64.9434C64.7039 14.2632 63.6022 8.71805 63.5986 8.7002L63.1914 6.69824Z" fill="white" fill-opacity="0.8" style="fill:white;fill-opacity:0.8;"/>
</svg>
