<svg width="24" height="24" viewBox="0 0 24 24" fill="none" xmlns="http://www.w3.org/2000/svg">
<path fill-rule="evenodd" clip-rule="evenodd" d="M2 20C2 19.4477 2.44772 19 3 19H11C11.5523 19 12 19.4477 12 20C12 20.5523 11.5523 21 11 21H3C2.44772 21 2 20.5523 2 20Z" fill="white"/>
<path fill-rule="evenodd" clip-rule="evenodd" d="M6 9.99998C6.55228 9.99998 7 10.4477 7 11V17C7 17.5523 6.55228 18 6 18C5.44772 18 5 17.5523 5 17V11C5 10.4477 5.44772 9.99998 6 9.99998Z" fill="white"/>
<path fill-rule="evenodd" clip-rule="evenodd" d="M10 9.99998C10.5523 9.99998 11 10.4477 11 11V17C11 17.5523 10.5523 18 10 18C9.44772 18 9 17.5523 9 17V11C9 10.4477 9.44772 9.99998 10 9.99998Z" fill="white"/>
<path fill-rule="evenodd" clip-rule="evenodd" d="M14 9.99998C14.5523 9.99998 15 10.4477 15 11V16C15 16.5523 14.5523 17 14 17C13.4477 17 13 16.5523 13 16V11C13 10.4477 13.4477 9.99998 14 9.99998Z" fill="white"/>
<path fill-rule="evenodd" clip-rule="evenodd" d="M18 9.99998C18.5523 9.99998 19 10.4477 19 11V13C19 13.5523 18.5523 14 18 14C17.4477 14 17 13.5523 17 13V11C17 10.4477 17.4477 9.99998 18 9.99998Z" fill="white"/>
<path fill-rule="evenodd" clip-rule="evenodd" d="M11.6676 2.12689C11.8864 2.07717 12.1136 2.07717 12.3324 2.12689C12.5922 2.18593 12.8162 2.32904 12.9242 2.39803C12.9354 2.40521 12.9454 2.41158 12.954 2.41698L20.53 7.15198C20.9083 7.38841 21.0842 7.84684 20.9612 8.27566C20.8383 8.70448 20.4461 8.99998 20 8.99998H4C3.55389 8.99998 3.16174 8.70448 3.03875 8.27566C2.91577 7.84684 3.0917 7.38841 3.47 7.15198L11.046 2.41698C11.0546 2.41158 11.0646 2.40521 11.0758 2.39803C11.1838 2.32904 11.4078 2.18593 11.6676 2.12689Z" fill="white"/>
<path d="M17 23V19.414L15.707 20.707C15.3165 21.0975 14.6835 21.0975 14.293 20.707C13.9024 20.3165 13.9024 19.6835 14.293 19.2929L17.293 16.2929L17.3691 16.2246C17.7619 15.9042 18.3409 15.9268 18.707 16.2929L21.707 19.2929C22.0976 19.6835 22.0976 20.3165 21.707 20.707C21.3165 21.0975 20.6835 21.0975 20.293 20.707L19 19.414V23C19 23.5523 18.5523 24 18 24C17.4477 24 17 23.5523 17 23Z" fill="white"/>
</svg>
