<svg width="44" height="44" viewBox="0 0 44 44" fill="none" xmlns="http://www.w3.org/2000/svg">
<path d="M0 16C0 10.3995 0 7.59921 1.08993 5.46009C2.04867 3.57847 3.57847 2.04867 5.46009 1.08993C7.59921 0 10.3995 0 16 0H28C33.6005 0 36.4008 0 38.5399 1.08993C40.4215 2.04867 41.9513 3.57847 42.9101 5.46009C44 7.59921 44 10.3995 44 16V28C44 33.6005 44 36.4008 42.9101 38.5399C41.9513 40.4215 40.4215 41.9513 38.5399 42.9101C36.4008 44 33.6005 44 28 44H16C10.3995 44 7.59921 44 5.46009 42.9101C3.57847 41.9513 2.04867 40.4215 1.08993 38.5399C0 36.4008 0 33.6005 0 28V16Z" fill="#F7F7F7"/>
<path d="M19.2757 11.34C19.7749 11.213 20.0245 11.149 20.2923 11.231C20.506 11.296 20.7385 11.477 20.8546 11.668C21 11.907 21 12.203 21 12.795L21 23.586L18.7071 21.293C18.3166 20.902 17.6834 20.902 17.2929 21.293C16.9024 21.683 16.9024 22.317 17.2929 22.707L21.2929 26.707C21.6834 27.098 22.3166 27.098 22.7071 26.707L26.7071 22.707C27.0976 22.317 27.0976 21.683 26.7071 21.293C26.3166 20.902 25.6834 20.902 25.2929 21.293L23 23.586L23 12.795C23 12.203 23 11.907 23.1454 11.668C23.2615 11.477 23.494 11.296 23.7077 11.231C23.9755 11.149 24.2251 11.213 24.7243 11.34C29.4817 12.552 33 16.865 33 22C33 28.075 28.0751 33 22 33C15.9249 33 11 28.075 11 22C11 16.865 14.5183 12.552 19.2757 11.34Z" fill="#9874FF"/>
</svg>
