<svg width="24" height="24" viewBox="0 0 24 24" fill="none" xmlns="http://www.w3.org/2000/svg">
<path d="M18.7998 4C19.3433 4 19.8116 3.99893 20.1953 4.03027C20.5906 4.06258 20.984 4.1344 21.3623 4.32715C21.9265 4.61472 22.3853 5.07347 22.6728 5.6377C22.8656 6.01599 22.9374 6.40943 22.9697 6.80469C23.0011 7.18836 23 7.65665 23 8.2002V15.7998C23 16.3434 23.0011 16.8116 22.9697 17.1953C22.9374 17.5906 22.8656 17.984 22.6728 18.3623C22.3853 18.9265 21.9265 19.3853 21.3623 19.6729C20.984 19.8656 20.5906 19.9374 20.1953 19.9697C19.8116 20.0011 19.3433 20 18.7998 20H5.20019C4.65664 20 4.18835 20.0011 3.80468 19.9697C3.40942 19.9374 3.01598 19.8656 2.63769 19.6729C2.07347 19.3853 1.61471 18.9265 1.32714 18.3623C1.13439 17.984 1.06258 17.5906 1.03027 17.1953C0.998919 16.8116 0.999992 16.3434 0.999992 15.7998V8.2002C0.999992 7.65665 0.998919 7.18836 1.03027 6.80469C1.06258 6.40943 1.13439 6.01599 1.32714 5.6377C1.61471 5.07347 2.07347 4.61472 2.63769 4.32715C3.01598 4.1344 3.40942 4.06258 3.80468 4.03027C4.18835 3.99893 4.65664 4 5.20019 4H18.7998ZM2.99999 15.7998C2.99999 16.3764 3.00126 16.7489 3.02441 17.0322C3.0466 17.3038 3.08418 17.4047 3.10937 17.4541C3.20521 17.6421 3.35792 17.7948 3.54589 17.8906C3.59533 17.9158 3.69618 17.9534 3.96777 17.9756C4.2511 17.9987 4.62364 18 5.20019 18H18.7998C19.3763 18 19.7489 17.9987 20.0322 17.9756C20.3038 17.9534 20.4047 17.9158 20.4541 17.8906C20.6421 17.7948 20.7948 17.6421 20.8906 17.4541C20.9158 17.4047 20.9534 17.3038 20.9756 17.0322C20.9987 16.7489 21 16.3764 21 15.7998V11H2.99999V15.7998ZM11 13C11.5523 13 12 13.4477 12 14C12 14.5523 11.5523 15 11 15H5.99999C5.44771 15 4.99999 14.5523 4.99999 14C4.99999 13.4477 5.44771 13 5.99999 13H11ZM5.20019 6C4.62364 6 4.2511 6.00126 3.96777 6.02441C3.69618 6.04661 3.59533 6.08419 3.54589 6.10938C3.35792 6.20521 3.20521 6.35793 3.10937 6.5459C3.08418 6.59534 3.0466 6.69619 3.02441 6.96777C3.00126 7.25111 2.99999 7.62364 2.99999 8.2002V9H21V8.2002C21 7.62364 20.9987 7.25111 20.9756 6.96777C20.9534 6.69619 20.9158 6.59534 20.8906 6.5459C20.7948 6.35793 20.6421 6.20521 20.4541 6.10938C20.4047 6.08419 20.3038 6.04661 20.0322 6.02441C19.7489 6.00126 19.3763 6 18.7998 6H5.20019Z" fill="#888888"/>
</svg>
