<svg width="24" height="24" viewBox="0 0 24 24" fill="none" xmlns="http://www.w3.org/2000/svg">
<path d="M17.8385 4L4.16146 4C3.63434 4 3.17954 4 2.80497 4.0306C2.40963 4.06287 2.01641 4.13419 1.63803 4.32698C1.07354 4.6146 0.614601 5.07354 0.32698 5.63803C0.134189 6.01641 0.0628671 6.40963 0.0305988 6.80497C0 7.17954 0 7.63432 0 8.16143C0 8.62449 0.375478 9 0.838607 9H21.1614C21.6246 9 22 8.62455 22 8.16143C22 7.63432 22 7.17954 21.9694 6.80497C21.9371 6.40963 21.8658 6.01641 21.673 5.63803C21.3854 5.07354 20.9265 4.6146 20.362 4.32698C19.9836 4.13419 19.5904 4.06287 19.195 4.0306C18.8205 4 18.3657 4 17.8385 4Z" fill="black"/>
<path fill-rule="evenodd" clip-rule="evenodd" d="M0.545974 11.109C0.759895 11 1.03993 11 1.6 11H20.4C20.9601 11 21.2401 11 21.454 11.109C21.6422 11.2049 21.7951 11.3578 21.891 11.546C22 11.7599 22 12.04 22 12.6V15.8386C22 16.3657 22 16.8205 21.9694 17.195C21.9371 17.5904 21.8658 17.9836 21.673 18.362C21.3854 18.9265 20.9265 19.3854 20.362 19.673C19.9836 19.8658 19.5904 19.9371 19.195 19.9694C18.8205 20 18.3657 20 17.8386 20L4.16129 20C3.63417 20 3.17952 20 2.80497 19.9694C2.40963 19.9371 2.01641 19.8658 1.63803 19.673C1.07354 19.3854 0.614601 18.9265 0.32698 18.362C0.134189 17.9836 0.0628671 17.5904 0.0305989 17.195C4.23715e-08 16.8205 0 16.3657 0 15.8386V12.6C0 12.0399 0 11.7599 0.108993 11.546C0.204855 11.3578 0.357852 11.2049 0.545974 11.109ZM5 14C4.44772 14 4 14.4477 4 15C4 15.5523 4.44772 16 5 16H10C10.5523 16 11 15.5523 11 15C11 14.4477 10.5523 14 10 14H5Z" fill="black"/>
</svg>
