<svg width="24" height="24" viewBox="0 0 24 24" fill="none" xmlns="http://www.w3.org/2000/svg">
<path d="M18.7998 4C19.3434 4 19.8116 3.99893 20.1953 4.03027C20.5906 4.06258 20.984 4.1344 21.3623 4.32715C21.9265 4.61472 22.3853 5.07348 22.6729 5.6377C22.8656 6.01599 22.9374 6.40943 22.9697 6.80469C23.0011 7.18836 23 7.65665 23 8.2002V15.7998C23 16.3434 23.0011 16.8116 22.9697 17.1953C22.9374 17.5906 22.8656 17.984 22.6729 18.3623C22.3853 18.9265 21.9265 19.3853 21.3623 19.6729C20.984 19.8656 20.5906 19.9374 20.1953 19.9697C19.8116 20.0011 19.3434 20 18.7998 20H5.2002C4.65665 20 4.18836 20.0011 3.80469 19.9697C3.40943 19.9374 3.01599 19.8656 2.6377 19.6729C2.07348 19.3853 1.61472 18.9265 1.32715 18.3623C1.1344 17.984 1.06258 17.5906 1.03027 17.1953C0.998927 16.8116 1 16.3434 1 15.7998L1 8.2002C1 7.65665 0.998926 7.18836 1.03027 6.80469C1.06258 6.40943 1.1344 6.01599 1.32715 5.6377C1.61472 5.07347 2.07347 4.61472 2.6377 4.32715C3.01599 4.1344 3.40943 4.06258 3.80469 4.03027C4.18836 3.99893 4.65665 4 5.2002 4L18.7998 4ZM6 8C5.44772 8 5 8.44772 5 9C5 9.55228 5.44772 10 6 10H11C11.5523 10 12 9.55228 12 9C12 8.44772 11.5523 8 11 8L6 8Z" fill="black"/>
</svg>
