<svg width="16" height="16" viewBox="0 0 16 16" fill="none" xmlns="http://www.w3.org/2000/svg">
<path fill-rule="evenodd" clip-rule="evenodd" d="M1.33337 13.3333C1.33337 12.9652 1.63185 12.6667 2.00004 12.6667H14C14.3682 12.6667 14.6667 12.9652 14.6667 13.3333C14.6667 13.7015 14.3682 14 14 14H2.00004C1.63185 14 1.33337 13.7015 1.33337 13.3333Z" fill="#7B7B7B"/>
<path fill-rule="evenodd" clip-rule="evenodd" d="M4.00004 6.66668C4.36823 6.66668 4.66671 6.96516 4.66671 7.33335V11.3333C4.66671 11.7015 4.36823 12 4.00004 12C3.63185 12 3.33337 11.7015 3.33337 11.3333V7.33335C3.33337 6.96516 3.63185 6.66668 4.00004 6.66668Z" fill="#7B7B7B"/>
<path fill-rule="evenodd" clip-rule="evenodd" d="M6.66671 6.66668C7.0349 6.66668 7.33337 6.96516 7.33337 7.33335V11.3333C7.33337 11.7015 7.0349 12 6.66671 12C6.29852 12 6.00004 11.7015 6.00004 11.3333V7.33335C6.00004 6.96516 6.29852 6.66668 6.66671 6.66668Z" fill="#7B7B7B"/>
<path fill-rule="evenodd" clip-rule="evenodd" d="M9.33337 6.66668C9.70156 6.66668 10 6.96516 10 7.33335V11.3333C10 11.7015 9.70156 12 9.33337 12C8.96518 12 8.66671 11.7015 8.66671 11.3333V7.33335C8.66671 6.96516 8.96518 6.66668 9.33337 6.66668Z" fill="#7B7B7B"/>
<path fill-rule="evenodd" clip-rule="evenodd" d="M12 6.66668C12.3682 6.66668 12.6667 6.96516 12.6667 7.33335V11.3333C12.6667 11.7015 12.3682 12 12 12C11.6319 12 11.3334 11.7015 11.3334 11.3333V7.33335C11.3334 6.96516 11.6319 6.66668 12 6.66668Z" fill="#7B7B7B"/>
<path fill-rule="evenodd" clip-rule="evenodd" d="M7.77846 1.41796C7.92432 1.38481 8.07576 1.38481 8.22163 1.41796C8.39484 1.45732 8.54416 1.55272 8.61614 1.59872C8.62363 1.6035 8.63028 1.60775 8.63604 1.61135L13.6867 4.76802C13.9389 4.92564 14.0562 5.23125 13.9742 5.51714C13.8922 5.80302 13.6308 6.00001 13.3334 6.00001H2.66671C2.3693 6.00001 2.10786 5.80302 2.02587 5.51714C1.94389 5.23125 2.06117 4.92564 2.31337 4.76802L7.36404 1.61135C7.3698 1.60775 7.37645 1.6035 7.38394 1.59872C7.45592 1.55272 7.60524 1.45732 7.77846 1.41796Z" fill="#7B7B7B"/>
</svg>
