<svg width="24" height="24" viewBox="0 0 24 24" fill="none" xmlns="http://www.w3.org/2000/svg">
<path d="M8.58887 8.50995C8.97119 7.83035 9.94974 7.83032 10.332 8.50995L12.5205 12.4006L16.4111 14.5891C17.0903 14.9715 17.0905 15.9499 16.4111 16.3322L12.5195 18.5197L10.332 22.4113C9.9497 23.0905 8.97131 23.0904 8.58887 22.4113L6.40039 18.5207L2.50977 16.3322C1.83014 15.9499 1.8302 14.9714 2.50977 14.5891L6.39941 12.3996L8.58887 8.50995ZM17.0439 1.88788C17.4262 1.20829 18.4047 1.20841 18.7871 1.88788L19.7734 3.64178L21.5283 4.62811C22.2079 5.01036 22.2077 5.98885 21.5283 6.37128L19.7734 7.3576L18.7871 9.11249C18.4046 9.7917 17.4262 9.79196 17.0439 9.11249L16.0576 7.3576L14.3037 6.37128C13.6243 5.9889 13.6242 5.01041 14.3037 4.62811L16.0576 3.64178L17.0439 1.88788Z" fill="#2CC2FF"/>
</svg>
