<svg width="24" height="24" viewBox="0 0 24 24" fill="none" xmlns="http://www.w3.org/2000/svg">
<path d="M4.09105 2.50697C4.25875 2.48883 4.42789 2.50928 4.58812 2.56166L4.5891 2.55971C5.28726 2.75417 6.37268 3.09661 7.44164 3.60365C8.49813 4.10484 9.6012 4.79566 10.2737 5.71401C11.0106 6.71771 11.0912 7.7964 10.9309 8.70326C10.8048 9.41631 10.5261 10.0362 10.2922 10.4679C10.7118 11.127 11.094 11.8913 11.4202 12.7697C11.7904 11.8655 12.247 11.1419 12.7434 10.5792C12.6678 10.0812 12.6135 9.39436 12.719 8.66811C12.8548 7.73405 13.257 6.69954 14.2336 5.94838H14.2346C15.13 5.23452 16.3455 4.88602 17.4631 4.71596C18.596 4.54368 19.6943 4.54467 20.3987 4.57436V4.57631C20.5764 4.58017 20.751 4.62446 20.9075 4.70815C21.0691 4.79478 21.2079 4.91952 21.3118 5.06947C21.4155 5.21944 21.4828 5.39253 21.509 5.5724C21.5332 5.73921 21.5193 5.90949 21.4729 6.07143L21.4748 6.0724C21.3061 6.77717 21.0038 7.87448 20.5364 8.96108C20.0742 10.0352 19.4236 11.1627 18.5305 11.8683C17.5544 12.6415 16.4798 12.7619 15.5676 12.6349C14.9744 12.5523 14.4406 12.3635 14.0246 12.1779C13.1733 13.2833 12.3716 15.3241 12.5168 18.9601C12.5183 18.9963 12.5172 19.0322 12.5149 19.0675C12.5306 19.6964 12.5279 20.3545 12.4993 21.0421C12.476 21.5936 12.0098 22.022 11.4582 21.9992C10.9067 21.976 10.4783 21.5098 10.5012 20.9581C10.6986 16.2182 9.7401 13.2623 8.55883 11.4718C8.08473 11.512 7.48612 11.5185 6.86254 11.4044C5.93404 11.2345 4.91535 10.7947 4.20043 9.79115V9.79018C3.51982 8.86924 3.21616 7.64181 3.08715 6.51869C2.95649 5.38043 2.99751 4.28301 3.05297 3.58022H3.05492C3.0653 3.40267 3.11589 3.22965 3.20531 3.07631C3.29786 2.91785 3.4275 2.78403 3.58129 2.68569C3.73508 2.58744 3.91016 2.5266 4.09105 2.50697Z" fill="black"/>
</svg>
