<svg width="44" height="44" viewBox="0 0 44 44" fill="none" xmlns="http://www.w3.org/2000/svg">
<path d="M0 16C0 10.3995 0 7.59921 1.08993 5.46009C2.04867 3.57847 3.57847 2.04867 5.46009 1.08993C7.59921 0 10.3995 0 16 0H28C33.6005 0 36.4008 0 38.5399 1.08993C40.4215 2.04867 41.9513 3.57847 42.9101 5.46009C44 7.59921 44 10.3995 44 16V28C44 33.6005 44 36.4008 42.9101 38.5399C41.9513 40.4215 40.4215 41.9513 38.5399 42.9101C36.4008 44 33.6005 44 28 44H16C10.3995 44 7.59921 44 5.46009 42.9101C3.57847 41.9513 2.04867 40.4215 1.08993 38.5399C0 36.4008 0 33.6005 0 28V16Z" fill="#F7F7F7"/>
<path d="M17.293 22.293C17.6835 21.902 18.3165 21.902 18.707 22.293C19.0975 22.683 19.0975 23.317 18.707 23.707L16.4141 26H30C30.5523 26 31 26.448 31 27C31 27.552 30.5523 28 30 28H16.4141L18.707 30.293C19.0975 30.683 19.0975 31.317 18.707 31.707C18.3165 32.098 17.6835 32.098 17.293 31.707L13.293 27.707C12.9025 27.317 12.9025 26.683 13.293 26.293L17.293 22.293ZM25.293 12.293C25.6835 11.902 26.3165 11.902 26.707 12.293L30.707 16.293C31.0975 16.683 31.0975 17.317 30.707 17.707L26.707 21.707C26.3165 22.098 25.6835 22.098 25.293 21.707C24.9025 21.317 24.9025 20.683 25.293 20.293L27.5859 18H14C13.4477 18 13 17.552 13 17C13 16.448 13.4477 16 14 16H27.5859L25.293 13.707C24.9025 13.317 24.9025 12.683 25.293 12.293Z" fill="#FF74E0"/>
</svg>
