<svg width="24" height="24" viewBox="0 0 24 24" fill="none" xmlns="http://www.w3.org/2000/svg">
<path d="M7.29297 12.293C7.68349 11.9025 8.31651 11.9025 8.70703 12.293C9.09752 12.6836 9.09754 13.3166 8.70703 13.7071L6.41406 16.0001H20C20.5523 16.0001 21 16.4478 21 17.0001C21 17.5523 20.5523 18.0001 20 18.0001H6.41406L8.70703 20.293C9.09752 20.6836 9.09754 21.3166 8.70703 21.7071C8.31652 22.0976 7.68348 22.0976 7.29297 21.7071L3.29297 17.7071C2.90246 17.3166 2.90248 16.6836 3.29297 16.293L7.29297 12.293ZM15.293 2.29303C15.6835 1.90251 16.3165 1.90251 16.707 2.29303L20.707 6.29303C21.0975 6.68356 21.0975 7.31658 20.707 7.70709L16.707 11.7071C16.3165 12.0976 15.6835 12.0976 15.293 11.7071C14.9025 11.3166 14.9025 10.6836 15.293 10.293L17.5859 8.00006H4C3.44774 8.00006 3.00004 7.55231 3 7.00006C3 6.44778 3.44772 6.00006 4 6.00006H17.5859L15.293 3.70709C14.9025 3.31658 14.9025 2.68356 15.293 2.29303Z" fill="#DB61C0"/>
</svg>
