<svg width="24" height="24" viewBox="0 0 24 24" fill="none" xmlns="http://www.w3.org/2000/svg">
<path d="M1 0C1.55228 0 2 0.447715 2 1V17.4C2 17.6965 2.00078 17.8588 2.01031 17.9754L2.01145 17.9885L2.02464 17.9897C2.14122 17.9992 2.30348 18 2.6 18H19C19.5523 18 20 18.4477 20 19C20 19.5523 19.5523 20 19 20L2.56816 20C2.31578 20 2.06993 20.0001 1.86178 19.9831C1.63318 19.9644 1.36345 19.9203 1.09202 19.782C0.715695 19.5903 0.409734 19.2843 0.217987 18.908C0.0796899 18.6366 0.0356224 18.3668 0.0169456 18.1382C-0.000061011 17.9301 -3.24161e-05 17.6843 -2.0992e-06 17.4319L0 1C0 0.447715 0.447715 0 1 0Z" fill="black"/>
<path d="M18 7.41421V9C18 9.55228 18.4477 10 19 10C19.5523 10 20 9.55228 20 9V5C20 4.44772 19.5523 4 19 4H15C14.4477 4 14 4.44772 14 5C14 5.55228 14.4477 6 15 6H16.5858L13 9.58579L11.2564 7.84221C11.1722 7.75795 11.0717 7.65732 10.9758 7.57595C10.8648 7.48166 10.6962 7.35611 10.4635 7.28052C10.1623 7.18264 9.83774 7.18264 9.53647 7.28052C9.30384 7.35611 9.13524 7.48166 9.02417 7.57595C8.92831 7.65732 8.82776 7.75795 8.74357 7.84221L4.29289 12.2929C3.90237 12.6834 3.90237 13.3166 4.29289 13.7071C4.68342 14.0976 5.31658 14.0976 5.70711 13.7071L10 9.41421L11.7436 11.1578C11.8278 11.242 11.9283 11.3427 12.0242 11.4241C12.1352 11.5183 12.3038 11.6439 12.5365 11.7195C12.8377 11.8174 13.1623 11.8174 13.4635 11.7195C13.6962 11.6439 13.8648 11.5183 13.9758 11.4241C14.0717 11.3427 14.1722 11.2421 14.2564 11.1578L18 7.41421Z" fill="black"/>
</svg>
