<svg width="44" height="44" viewBox="0 0 44 44" fill="none" xmlns="http://www.w3.org/2000/svg">
<path d="M0 16C0 10.3995 0 7.59921 1.08993 5.46009C2.04867 3.57847 3.57847 2.04867 5.46009 1.08993C7.59921 0 10.3995 0 16 0H28C33.6005 0 36.4008 0 38.5399 1.08993C40.4215 2.04867 41.9513 3.57847 42.9101 5.46009C44 7.59921 44 10.3995 44 16V28C44 33.6005 44 36.4008 42.9101 38.5399C41.9513 40.4215 40.4215 41.9513 38.5399 42.9101C36.4008 44 33.6005 44 28 44H16C10.3995 44 7.59921 44 5.46009 42.9101C3.57847 41.9513 2.04867 40.4215 1.08993 38.5399C0 36.4008 0 33.6005 0 28V16Z" fill="#F7F7F7"/>
<path d="M26.5 12C24.0147 12 22 14.0147 22 16.5C22 18.9853 24.0147 21 26.5 21C28.9853 21 31 18.9853 31 16.5C31 14.0147 28.9853 12 26.5 12Z" fill="#78D381"/>
<path d="M22.0318 11.7793C20.7805 12.964 20 14.6408 20 16.5C20 17.6971 20.3236 18.8186 20.8881 19.7818C20.4509 19.9235 19.9844 20 19.5 20C17.0147 20 15 17.9853 15 15.5C15 13.0147 17.0147 11 19.5 11C20.4388 11 21.3105 11.2875 22.0318 11.7793Z" fill="#78D381"/>
<path d="M27.7089 25.893C27.7089 26.685 27.1855 27.354 26.464 27.578L26.9279 27.556C27.4349 27.556 27.9279 27.397 28.333 27.1L31.1619 25.037C31.8679 24.522 32.8561 24.59 33.4802 25.197C34.1734 25.871 34.1734 26.964 33.4802 27.637L31.053 29.998C30.3996 30.634 29.5659 31.068 28.6597 31.244L25.229 31.912C24.5487 32.044 23.8473 32.028 23.1741 31.864L20.0712 31.11C19.7 31.019 19.3195 30.973 18.9366 30.973C18.5301 30.973 18.3269 30.973 18.1638 30.915C17.8813 30.814 17.6591 30.592 17.5582 30.309C17.5 30.146 17.5 29.943 17.5 29.536V26.107C17.5 25.821 17.5 25.679 17.5367 25.547C17.5692 25.43 17.6226 25.32 17.6944 25.223C17.7754 25.113 17.8879 25.025 18.1128 24.848L19.2984 23.9186C19.2984 23.9186 21.2632 23 22.3486 23C22.7982 23 23.2455 23.0547 23.6822 23.163L26.3659 23.8301C27.1551 24.026 27.7089 24.731 27.7089 25.541V25.893Z" fill="#78D381"/>
<path fill-rule="evenodd" clip-rule="evenodd" d="M13.4735 23C13.4823 23 13.4912 23 13.5 23C13.5088 23 13.5177 23 13.5265 23C13.7365 23 13.9411 22.9999 14.1152 23.0118C14.3056 23.0248 14.5313 23.0553 14.7654 23.1522C15.2554 23.3552 15.6448 23.7446 15.8478 24.235C15.9447 24.469 15.9752 24.694 15.9882 24.885C16 25.059 16 25.263 16 25.474C16 25.482 16 25.491 16 25.5L16 30.526C16 30.737 16 30.941 15.9882 31.115C15.9752 31.306 15.9447 31.531 15.8478 31.765C15.6448 32.255 15.2554 32.645 14.7654 32.848C14.5313 32.945 14.3056 32.975 14.1152 32.988C13.9411 33 13.7365 33 13.5265 33H13.4735C13.2635 33 13.0589 33 12.8848 32.988C12.6944 32.975 12.4687 32.945 12.2346 32.848C11.7446 32.645 11.3552 32.255 11.1522 31.765C11.0553 31.531 11.0248 31.306 11.0118 31.115C11 30.941 11 30.737 11 30.526L11 25.5C11 25.491 11 25.482 11 25.474C11 25.263 11 25.059 11.0118 24.885C11.0248 24.694 11.0553 24.469 11.1522 24.235C11.3552 23.7446 11.7446 23.3552 12.2346 23.1522C12.4687 23.0553 12.6944 23.0248 12.8848 23.0118C13.0589 22.9999 13.2635 23 13.4735 23Z" fill="#78D381"/>
</svg>
