<svg width="24" height="24" viewBox="0 0 24 24" fill="none" xmlns="http://www.w3.org/2000/svg">
<path fill-rule="evenodd" clip-rule="evenodd" d="M11.4772 1.33636C11.8195 1.24368 12.1803 1.24368 12.5226 1.33636C12.92 1.44395 13.2545 1.7066 13.5215 1.91623C15.8249 3.72462 18.1426 5.51471 20.4561 7.31011C20.8328 7.6024 21.1646 7.8599 21.4119 8.19421C21.6288 8.48759 21.7905 8.8181 21.8889 9.1695C22.0009 9.56992 22.0005 9.98993 22 10.4667C21.9974 12.924 21.9999 15.3813 21.9999 17.8386C21.9999 18.3657 21.9999 18.8204 21.9693 19.195C21.937 19.5904 21.8657 19.9836 21.6729 20.362C21.3853 20.9264 20.9264 21.3854 20.3619 21.673C19.9835 21.8658 19.5903 21.9371 19.1949 21.9694C18.3934 22.0349 17.5804 21.9996 16.7767 22C16.6576 22 16.5154 22.0001 16.3901 21.9899C16.2448 21.978 16.0369 21.9475 15.8189 21.8365C15.5367 21.6927 15.3072 21.4632 15.1634 21.181C15.0523 20.963 15.0219 20.755 15.01 20.6098C14.9998 20.4845 14.9998 20.3422 14.9999 20.2231L15.0078 14.6269C15.0086 14.0661 15.009 13.7857 14.9001 13.5715C14.8043 13.3831 14.6513 13.2298 14.463 13.1338C14.2489 13.0246 13.9685 13.0246 13.4078 13.0246H10.6079C10.0486 13.0246 9.76892 13.0246 9.55516 13.1334C9.36713 13.2291 9.21419 13.3818 9.11822 13.5697C9.00911 13.7833 9.00871 14.063 9.00791 14.6223L8.9999 20.2231C8.99995 20.3422 9 20.4845 8.98976 20.6098C8.9779 20.755 8.94745 20.963 8.83641 21.181C8.6926 21.4632 8.46312 21.6927 8.18088 21.8365C7.96294 21.9475 7.75494 21.978 7.60973 21.9899C7.48441 22.0001 7.34216 22 7.22305 22C6.41936 21.9996 5.60639 22.0349 4.80487 21.9694C4.40952 21.9371 4.0163 21.8658 3.63792 21.673C3.07344 21.3854 2.6145 20.9264 2.32688 20.362C2.13408 19.9836 2.06277 19.5904 2.03046 19.195C1.99986 18.8204 1.99988 18.3657 1.99989 17.8385C1.99989 15.3812 2.00248 12.9239 1.99982 10.4667C1.99931 9.98993 1.99886 9.56992 2.11094 9.1695C2.2093 8.8181 2.37094 8.48759 2.58794 8.19421C2.83519 7.85991 3.16701 7.6024 3.54364 7.31012C5.85707 5.51479 8.175 3.72458 10.4783 1.91623C10.7453 1.7066 11.0798 1.44395 11.4772 1.33636Z" fill="#080808"/>
</svg>
